<svg width="24" height="24" xmlns="http://www.w3.org/2000/svg" fill-rule="evenodd" clip-rule="evenodd" fill="#fffffe"><path d="M18 24h-12v-12l-3 10.357-3-.773 4-17.584 3.782-2.002c-.417 1.998.72 4.432 1.516 6.158.804-.703 1.301-1.157 2.7-2.252 1.394 1.093 1.822 1.485 2.7 2.251.83-1.796 1.935-4.186 1.518-6.158l3.784 2.003 4 17.584-3 .731-2.882-10.315-.118 12zm-6-3c.276 0 .5.224.5.5s-.224.5-.5.5-.5-.224-.5-.5.224-.5.5-.5zm0-3c.276 0 .5.224.5.5s-.224.5-.5.5-.5-.224-.5-.5.224-.5.5-.5zm0-3.001c.276 0 .5.224.5.5s-.224.5-.5.5-.5-.224-.5-.5.224-.5.5-.5zm0-2.998c.276 0 .5.224.5.5s-.224.5-.5.5-.5-.224-.5-.5.224-.5.5-.5zm0-3.001c.276 0 .5.224.5.5s-.224.5-.5.5-.5-.224-.5-.5.224-.5.5-.5zm-2.425-2.15c-2.099-4.546-1.049-6.858 2.422-6.846 2.888 0 4.823 1.646 2.422 6.846-.877-.766-2.162-1.76-2.422-1.959-.029-.023-2.389 1.93-2.422 1.959zm2.438-2.226c1.396-.419 3.992-3.633-.013-3.624-4.009.009-1.39 3.228-.003 3.629l.016-.005z"/></svg>
