<svg width="24" height="24" xmlns="http://www.w3.org/2000/svg" fill-rule="evenodd" clip-rule="evenodd"  fill="#fffffe"><path d="M2.178 11h-1.178v-2.209c.468 0 .774-.474.944-.997.587-1.803 1.59-4.513 4.056-6.212v3.418c0 .552.448 1 1 1s1-.448 1-1v-4.437c.868-.309 1.861-.516 3-.585v3.022c0 .552.448 1 1 1s1-.448 1-1v-3c1.134.094 2.128.327 3 .661v4.339c0 .552.448 1 1 1s1-.448 1-1v-3.269c2.391 1.7 3.463 4.304 4.057 6.063.175.52.475.997.943.997v2.209h-1.179c.575.459 1.179 1.36 1.179 3.131 0 1.63-.904 3.686-2.877 4.531-2.153 3.445-5.027 5.338-8.123 5.338-3.096 0-5.97-1.893-8.124-5.338-1.973-.845-2.876-2.901-2.876-4.531 0-1.771.603-2.672 1.178-3.131zm12.022 7.459h-4.4c.004.012.626 1.74 2.2 1.74 1.634 0 2.196-1.728 2.2-1.74zm4.517-7.459h-13.435l-.013.515c0 .668-.682 1.114-1.288.844-.169-.075-.43-.073-.617.049-.917.601-.819 3.864 1.425 4.629.916.313 2.364 3.103 3.93.398.542-.934 2.251-1.039 3.281-.297 1.029-.742 2.739-.637 3.28.297 1.566 2.705 3.014-.085 3.93-.398 2.244-.765 2.342-4.028 1.425-4.629-.215-.14-.487-.106-.616-.049-.606.271-1.289-.176-1.289-.844l-.013-.515zm-9.696.996c-.634 0-1.146.62-1.146 1.385s.512 1.385 1.146 1.385c.632 0 1.146-.62 1.146-1.385s-.514-1.385-1.146-1.385zm7.104 1.385c0 .765-.513 1.385-1.146 1.385-.633 0-1.146-.62-1.146-1.385s.513-1.385 1.146-1.385c.633 0 1.146.62 1.146 1.385z"/></svg>
